<svg xmlns="http://www.w3.org/2000/svg" xmlns:xlink="http://www.w3.org/1999/xlink" width="500" zoomAndPan="magnify" viewBox="0 0 375 374.999991" height="500" preserveAspectRatio="xMidYMid meet" version="1.0"><defs><g/><clipPath id="9cd8368b62"><path d="M 111 87.109375 L 271 87.109375 L 271 231 L 111 231 Z M 111 87.109375 " clip-rule="nonzero"/></clipPath><clipPath id="37380d7fdf"><path d="M 169.117188 146.351562 L 205.867188 146.351562 L 205.867188 195 L 169.117188 195 Z M 169.117188 146.351562 " clip-rule="nonzero"/></clipPath></defs><rect x="-37.5" width="450" fill="#ffffff" y="-37.499999" height="449.999989" fill-opacity="1"/><rect x="-37.5" width="450" fill="#ffffff" y="-37.499999" height="449.999989" fill-opacity="1"/><g clip-path="url(#9cd8368b62)"><path fill="#090907" d="M 247.96875 167.144531 C 247.796875 165.171875 247.464844 163.25 246.941406 161.375 C 245.023438 154.507812 242.050781 148.160156 237.597656 142.550781 C 236.75 141.484375 235.792969 140.523438 234.789062 139.605469 C 234.546875 139.382812 234.289062 139.164062 234.082031 138.910156 C 233.535156 138.242188 233.640625 137.613281 234.390625 137.175781 C 235.195312 136.703125 236.078125 136.414062 236.960938 136.128906 C 237.652344 135.90625 238.347656 135.691406 239.03125 135.445312 C 239.332031 135.335938 239.605469 135.214844 239.808594 134.894531 C 240.15625 134.351562 241.019531 134.359375 241.273438 134.9375 C 241.796875 136.121094 242.730469 136.984375 243.460938 137.996094 C 246.726562 142.53125 248.988281 147.542969 250.722656 152.835938 C 252.402344 157.964844 253.441406 163.207031 253.929688 168.574219 C 253.953125 168.863281 253.925781 169.171875 254.152344 169.480469 C 255.328125 169.128906 256.527344 168.773438 257.773438 168.621094 C 260.3125 168.308594 262.734375 168.578125 264.894531 170.089844 C 265.773438 170.707031 266.476562 171.496094 267.066406 172.386719 C 268.894531 175.144531 269.988281 178.1875 270.367188 181.457031 C 271.433594 190.703125 269.464844 199.246094 264.214844 206.964844 C 261.042969 211.628906 256.929688 215.351562 252.355469 218.59375 C 244.890625 223.882812 236.605469 227.226562 227.652344 228.945312 C 224.425781 229.566406 221.15625 229.796875 217.878906 229.976562 C 211.925781 230.304688 205.964844 230.226562 200.003906 230.265625 C 199.601562 230.269531 199.191406 230.292969 198.949219 229.878906 C 198.679688 229.425781 198.914062 229.046875 199.15625 228.683594 C 201.882812 224.566406 203.246094 219.953125 203.996094 215.132812 C 205 208.71875 206.074219 202.324219 207.765625 196.039062 C 210.042969 187.558594 213.945312 179.917969 219.367188 173.054688 C 222.113281 169.582031 225.503906 166.847656 229.46875 164.847656 C 231.539062 163.800781 233.726562 163.226562 236.042969 163.128906 C 238.308594 163.035156 240.425781 163.714844 242.519531 164.445312 C 244.421875 165.109375 246.261719 165.925781 247.96875 167.144531 Z M 200.753906 228.75 C 201.101562 228.980469 201.375 228.917969 201.632812 228.917969 C 205.707031 228.933594 209.78125 228.9375 213.851562 228.804688 C 217.195312 228.695312 220.539062 228.554688 223.863281 228.171875 C 228.792969 227.605469 233.554688 226.359375 238.1875 224.605469 C 246.585938 221.421875 254.035156 216.75 260.066406 210.046875 C 267.433594 201.859375 270.320312 192.1875 268.992188 181.273438 C 268.617188 178.207031 267.535156 175.359375 265.746094 172.8125 C 264.773438 171.425781 263.457031 170.523438 261.816406 170.117188 C 259.390625 169.515625 257.023438 169.863281 254.679688 170.601562 C 254.246094 170.734375 254.144531 170.996094 254.171875 171.421875 C 254.25 172.746094 254.3125 174.070312 254.347656 175.394531 C 254.46875 179.8125 254.289062 184.207031 253.296875 188.542969 C 252.386719 192.515625 251.039062 196.304688 248.742188 199.703125 C 244.628906 205.785156 239.347656 210.542969 232.769531 213.832031 C 229.359375 215.535156 225.933594 217.1875 222.308594 218.398438 C 221.160156 218.78125 220.003906 218.972656 218.800781 218.679688 C 218.414062 218.582031 217.941406 218.597656 217.824219 218.136719 C 217.699219 217.667969 217.910156 217.214844 218.230469 216.871094 C 218.429688 216.660156 218.710938 216.511719 218.976562 216.394531 C 219.824219 216.015625 220.664062 215.617188 221.535156 215.308594 C 223.507812 214.605469 225.398438 213.738281 227.234375 212.738281 C 229.878906 211.289062 232.519531 209.839844 234.878906 207.9375 C 236.976562 206.246094 238.839844 204.316406 240.675781 202.359375 C 243.613281 199.234375 245.679688 195.609375 246.847656 191.484375 C 247.527344 189.089844 247.972656 186.644531 248.351562 184.1875 C 249.0625 179.5625 248.914062 174.933594 248.503906 170.296875 C 248.449219 169.699219 248.214844 169.25 247.757812 168.855469 C 244.796875 166.28125 241.226562 165.097656 237.457031 164.542969 C 234.726562 164.140625 232.140625 164.933594 229.714844 166.207031 C 225.59375 168.375 222.210938 171.386719 219.433594 175.113281 C 214.234375 182.085938 210.625 189.792969 208.546875 198.25 C 207.195312 203.761719 206.25 209.34375 205.375 214.941406 C 204.824219 218.453125 204.027344 221.902344 202.566406 225.167969 C 202.027344 226.371094 201.402344 227.535156 200.753906 228.75 Z M 220.117188 217.503906 C 221.105469 217.5 221.835938 217.179688 222.570312 216.898438 C 225.730469 215.699219 228.789062 214.273438 231.824219 212.785156 C 236.492188 210.488281 240.550781 207.402344 244.019531 203.535156 C 246.671875 200.578125 248.914062 197.363281 250.347656 193.617188 C 252.265625 188.597656 253.003906 183.375 253.023438 178.035156 C 253.039062 174.152344 252.757812 170.292969 252.320312 166.433594 C 251.546875 159.625 249.707031 153.117188 246.976562 146.855469 C 245.394531 143.222656 243.320312 139.875 240.800781 136.804688 C 240.480469 136.410156 240.226562 136.277344 239.734375 136.515625 C 238.964844 136.894531 238.136719 137.144531 237.316406 137.410156 C 236.671875 137.617188 236.007812 137.800781 235.484375 138.191406 C 235.488281 138.425781 235.601562 138.507812 235.699219 138.589844 C 237.804688 140.402344 239.46875 142.59375 240.992188 144.886719 C 246.730469 153.527344 249.585938 163.089844 250.128906 173.402344 C 250.410156 178.828125 250 184.191406 248.773438 189.492188 C 248.066406 192.546875 247.140625 195.527344 245.484375 198.195312 C 242.363281 203.21875 238.277344 207.363281 233.402344 210.671875 C 229.695312 213.1875 225.765625 215.320312 221.503906 216.78125 C 221.074219 216.929688 220.621094 217.054688 220.117188 217.503906 Z M 148.054688 212.140625 C 148.207031 212.492188 148.535156 212.632812 148.796875 212.835938 C 155.222656 217.882812 162.503906 221.125 170.382812 223.121094 C 172.410156 223.636719 174.441406 223.949219 176.542969 223.753906 C 177.683594 223.648438 178.128906 224.121094 178.039062 225.261719 C 177.914062 226.789062 177.722656 228.3125 177.5625 229.839844 C 177.511719 230.3125 177.246094 230.457031 176.773438 230.585938 C 174.972656 231.09375 173.203125 230.683594 171.433594 230.5 C 166.742188 230.003906 162.164062 229.03125 157.769531 227.269531 C 152.890625 225.316406 148.402344 222.726562 144.496094 219.191406 C 144.113281 218.84375 143.871094 218.828125 143.472656 219.144531 C 141.855469 220.417969 140.117188 221.488281 138.085938 221.964844 C 134.722656 222.753906 131.332031 222.820312 127.964844 222.035156 C 125.558594 221.472656 123.507812 220.191406 121.683594 218.550781 C 118.292969 215.511719 115.957031 211.738281 114.199219 207.582031 C 112.636719 203.894531 111.53125 200.074219 111.203125 196.058594 C 110.945312 192.886719 111.144531 189.726562 111.632812 186.582031 C 112.890625 178.511719 115.679688 170.984375 119.570312 163.832031 C 120.96875 161.257812 122.335938 158.667969 123.847656 156.160156 C 125.273438 153.792969 126.578125 151.367188 127.851562 148.917969 C 127.945312 148.738281 128.03125 148.550781 128.128906 148.371094 C 128.753906 147.246094 129.515625 147.175781 130.164062 148.320312 C 132.242188 151.988281 135.292969 154.730469 138.511719 157.335938 C 142.089844 160.230469 145.539062 163.273438 148.90625 166.410156 C 154.21875 171.359375 157.234375 177.527344 158.546875 184.59375 C 159.097656 187.546875 159.441406 190.53125 159.347656 193.542969 C 159.253906 196.410156 159.027344 199.28125 157.96875 201.980469 C 156.441406 205.871094 154.007812 209.019531 150.179688 210.933594 C 149.453125 211.296875 148.714844 211.652344 148.054688 212.140625 Z M 142.984375 217.785156 C 142.703125 217.453125 142.464844 217.171875 142.226562 216.894531 C 141.957031 216.585938 141.675781 216.285156 141.417969 215.96875 C 136.179688 209.539062 132.542969 202.273438 130.148438 194.359375 C 129.15625 191.082031 128.71875 187.699219 128.410156 184.300781 C 128.058594 180.425781 127.875 176.546875 128.121094 172.65625 C 128.175781 171.804688 128.316406 170.957031 128.578125 170.144531 C 128.886719 169.175781 129.601562 168.953125 130.503906 169.421875 C 131.199219 169.785156 131.273438 170.421875 131.328125 171.070312 C 131.550781 173.683594 131.738281 176.304688 131.972656 178.917969 C 132.160156 181.023438 132.253906 183.140625 132.691406 185.210938 C 134.28125 192.714844 137.207031 199.625 141.859375 205.765625 C 143.074219 207.371094 144.34375 208.925781 145.792969 210.328125 C 146.507812 211.023438 146.78125 211.058594 147.6875 210.585938 C 148.59375 210.113281 149.492188 209.628906 150.394531 209.148438 C 151.089844 208.78125 151.714844 208.316406 152.289062 207.773438 C 155.300781 204.921875 157.078125 201.46875 157.5625 197.324219 C 157.980469 193.738281 157.871094 190.1875 157.371094 186.621094 C 156.230469 178.507812 152.796875 171.660156 146.5625 166.230469 C 142.757812 162.921875 138.945312 159.621094 135.074219 156.390625 C 132.941406 154.609375 131.0625 152.601562 129.617188 150.207031 C 129.511719 150.027344 129.453125 149.765625 129.125 149.742188 C 128.414062 151.0625 127.734375 152.398438 126.992188 153.699219 C 124.773438 157.570312 122.488281 161.40625 120.449219 165.382812 C 118.113281 169.9375 115.988281 174.574219 114.695312 179.554688 C 113.621094 183.6875 112.722656 187.847656 112.589844 192.132812 C 112.386719 198.828125 114.242188 204.996094 117.449219 210.796875 C 118.761719 213.167969 120.375 215.320312 122.371094 217.164062 C 124.332031 218.980469 126.554688 220.332031 129.230469 220.785156 C 132.1875 221.285156 135.140625 221.191406 138.046875 220.457031 C 139.882812 219.992188 141.476562 219.023438 142.984375 217.785156 Z M 129.84375 172.050781 C 129.558594 172.914062 129.574219 173.695312 129.558594 174.46875 C 129.5 177.675781 129.65625 180.875 129.941406 184.070312 C 130.230469 187.261719 130.644531 190.4375 131.519531 193.53125 C 133.351562 200.015625 136.257812 206 140.011719 211.582031 C 141.597656 213.933594 143.375 216.140625 145.488281 218.039062 C 150.207031 222.269531 155.683594 225.160156 161.714844 227.023438 C 165.964844 228.335938 170.339844 228.96875 174.742188 229.40625 C 176.429688 229.574219 176.214844 229.621094 176.332031 228.03125 C 176.363281 227.621094 176.433594 227.21875 176.457031 226.808594 C 176.484375 226.308594 176.625 225.804688 176.453125 225.285156 C 174.816406 225.5 173.226562 225.339844 171.664062 224.992188 C 165.914062 223.722656 160.425781 221.746094 155.253906 218.914062 C 151.019531 216.59375 147.09375 213.84375 143.703125 210.386719 C 141.496094 208.140625 139.769531 205.511719 138.011719 202.914062 C 136.339844 200.4375 135.203125 197.695312 134.054688 194.964844 C 132.414062 191.054688 131.214844 187.003906 130.773438 182.769531 C 130.40625 179.246094 130.15625 175.710938 129.84375 172.050781 Z M 164.296875 115.652344 C 164.175781 115.636719 164.0625 115.707031 163.953125 115.789062 C 159.9375 118.894531 155.890625 121.960938 152.179688 125.4375 C 150.699219 126.820312 149.425781 128.363281 148.324219 130.058594 C 147.660156 131.085938 146.984375 132.113281 146.261719 133.105469 C 145.484375 134.171875 144.894531 134.242188 143.882812 133.425781 C 142.761719 132.523438 141.589844 131.726562 140.230469 131.222656 C 139.679688 131.019531 139.476562 130.027344 139.828125 129.367188 C 139.9375 129.160156 140.101562 128.980469 140.242188 128.789062 C 142.414062 125.878906 144.949219 123.308594 147.605469 120.851562 C 151.128906 117.589844 154.625 114.289062 158.542969 111.480469 C 159.429688 110.847656 160.328125 110.234375 161.246094 109.644531 C 161.59375 109.417969 161.675781 109.25 161.472656 108.839844 C 160.984375 107.839844 161.132812 106.773438 161.3125 105.726562 C 161.847656 102.628906 163.433594 100.074219 165.5 97.792969 C 170.300781 92.492188 176.257812 89.335938 183.308594 88.226562 C 190.042969 87.171875 196.441406 88.386719 202.660156 90.996094 C 207.863281 93.179688 212.449219 96.328125 216.773438 99.898438 C 218.824219 101.589844 220.761719 103.414062 222.699219 105.234375 C 224.90625 107.3125 227.15625 109.347656 229.515625 111.257812 C 229.726562 111.429688 229.945312 111.597656 230.128906 111.796875 C 230.648438 112.363281 230.585938 112.890625 229.96875 113.355469 C 229.886719 113.417969 229.792969 113.460938 229.703125 113.511719 C 224.914062 116.226562 220.597656 119.605469 216.332031 123.058594 C 213.308594 125.503906 210.160156 127.761719 206.828125 129.769531 C 201.917969 132.730469 196.652344 134.65625 190.941406 135.25 C 183.972656 135.976562 177.550781 134.464844 171.785156 130.382812 C 169.136719 128.507812 167.371094 125.96875 166.152344 123.015625 C 165.230469 120.769531 164.441406 118.484375 164.460938 116.007812 C 164.464844 115.878906 164.472656 115.730469 164.296875 115.652344 Z M 228.417969 112.457031 C 228.375 112.15625 228.167969 112.066406 228.015625 111.949219 C 225.167969 109.664062 222.542969 107.128906 219.878906 104.640625 C 215.902344 100.933594 211.726562 97.480469 206.976562 94.808594 C 201.515625 91.738281 195.746094 89.59375 189.382812 89.386719 C 181.585938 89.136719 174.679688 91.421875 168.792969 96.601562 C 166.65625 98.484375 164.816406 100.625 163.601562 103.242188 C 162.992188 104.550781 162.570312 105.917969 162.550781 107.375 C 162.535156 108.503906 162.789062 108.640625 163.753906 108.128906 C 170.996094 104.285156 178.730469 102.214844 186.890625 101.636719 C 192.609375 101.230469 198.0625 102.457031 203.417969 104.289062 C 204.1875 104.550781 204.921875 104.925781 205.652344 105.292969 C 206.207031 105.570312 206.53125 106.027344 206.484375 106.695312 C 206.371094 108.207031 205.59375 108.851562 204.109375 108.648438 C 204.007812 108.632812 203.910156 108.605469 203.808594 108.589844 C 201.1875 108.160156 198.605469 107.523438 195.96875 107.171875 C 193.738281 106.875 191.503906 106.625 189.25 106.734375 C 187.414062 106.824219 185.585938 107.019531 183.761719 107.289062 C 181.199219 107.667969 178.660156 108.125 176.25 109.144531 C 172.984375 110.527344 169.820312 112.113281 166.753906 113.894531 C 166.515625 114.03125 166.289062 114.183594 166.066406 114.335938 C 165.882812 114.460938 165.839844 114.628906 165.84375 114.859375 C 165.898438 117.914062 166.695312 120.777344 168.011719 123.515625 C 169.234375 126.066406 171 128.121094 173.378906 129.675781 C 178.417969 132.96875 183.945312 134.332031 189.90625 133.847656 C 194.992188 133.433594 199.789062 131.972656 204.273438 129.5 C 208.375 127.234375 212.1875 124.558594 215.792969 121.574219 C 219.074219 118.851562 222.53125 116.363281 226.046875 113.953125 C 226.824219 113.421875 227.640625 112.945312 228.417969 112.457031 Z M 141.101562 130.015625 C 142.363281 130.648438 143.515625 131.234375 144.515625 132.066406 C 144.832031 132.332031 145.046875 132.253906 145.257812 131.933594 C 145.871094 130.988281 146.5 130.058594 147.113281 129.117188 C 148.230469 127.394531 149.523438 125.8125 151.023438 124.410156 C 153.414062 122.175781 155.925781 120.082031 158.507812 118.078125 C 160.527344 116.511719 162.480469 114.859375 164.605469 113.4375 C 167.15625 111.730469 169.902344 110.367188 172.671875 109.050781 C 175.070312 107.910156 177.503906 106.851562 180.132812 106.335938 C 181.800781 106.007812 183.488281 105.792969 185.171875 105.554688 C 189.046875 105.007812 192.90625 105.117188 196.761719 105.730469 C 199.011719 106.089844 201.246094 106.535156 203.476562 106.988281 C 203.773438 107.050781 204.085938 107.058594 204.390625 107.070312 C 204.574219 107.078125 204.738281 106.972656 204.792969 106.808594 C 204.859375 106.605469 204.6875 106.519531 204.527344 106.445312 C 204.28125 106.328125 204.039062 106.207031 203.789062 106.09375 C 202.261719 105.40625 200.648438 104.992188 199.035156 104.5625 C 196.371094 103.851562 193.6875 103.277344 190.910156 103.175781 C 186.003906 103 181.203125 103.644531 176.46875 104.867188 C 170.378906 106.4375 164.675781 108.847656 159.59375 112.613281 C 153.886719 116.84375 148.746094 121.71875 143.789062 126.789062 C 142.84375 127.757812 141.929688 128.773438 141.101562 130.015625 Z M 200.753906 228.75 C 201.402344 227.535156 202.027344 226.371094 202.566406 225.167969 C 204.027344 221.902344 204.824219 218.453125 205.375 214.941406 C 206.25 209.34375 207.195312 203.761719 208.546875 198.25 C 210.625 189.792969 214.234375 182.085938 219.433594 175.113281 C 222.210938 171.386719 225.59375 168.375 229.714844 166.207031 C 232.140625 164.933594 234.726562 164.140625 237.457031 164.542969 C 241.226562 165.097656 244.796875 166.28125 247.757812 168.855469 C 248.214844 169.25 248.449219 169.699219 248.503906 170.296875 C 248.914062 174.933594 249.0625 179.5625 248.351562 184.1875 C 247.972656 186.644531 247.527344 189.089844 246.847656 191.484375 C 245.679688 195.609375 243.613281 199.234375 240.675781 202.359375 C 238.839844 204.316406 236.976562 206.246094 234.878906 207.9375 C 232.519531 209.839844 229.878906 211.289062 227.234375 212.738281 C 225.398438 213.738281 223.507812 214.605469 221.535156 215.308594 C 220.664062 215.617188 219.824219 216.015625 218.976562 216.394531 C 218.710938 216.511719 218.429688 216.660156 218.230469 216.871094 C 217.910156 217.214844 217.699219 217.667969 217.824219 218.136719 C 217.941406 218.597656 218.414062 218.582031 218.800781 218.679688 C 220.003906 218.972656 221.160156 218.78125 222.308594 218.398438 C 225.933594 217.1875 229.359375 215.535156 232.769531 213.832031 C 239.347656 210.542969 244.628906 205.785156 248.742188 199.703125 C 251.039062 196.304688 252.386719 192.515625 253.296875 188.542969 C 254.289062 184.207031 254.46875 179.8125 254.347656 175.394531 C 254.3125 174.070312 254.25 172.746094 254.171875 171.421875 C 254.144531 170.996094 254.246094 170.734375 254.679688 170.601562 C 257.023438 169.863281 259.390625 169.515625 261.816406 170.117188 C 263.457031 170.523438 264.773438 171.425781 265.746094 172.8125 C 267.535156 175.359375 268.617188 178.207031 268.992188 181.273438 C 270.320312 192.1875 267.433594 201.859375 260.066406 210.046875 C 254.035156 216.75 246.585938 221.421875 238.1875 224.605469 C 233.554688 226.359375 228.792969 227.605469 223.863281 228.171875 C 220.539062 228.554688 217.195312 228.695312 213.851562 228.804688 C 209.78125 228.9375 205.707031 228.933594 201.632812 228.917969 C 201.375 228.917969 201.101562 228.980469 200.753906 228.75 Z M 142.226562 216.894531 C 141.957031 216.585938 141.675781 216.285156 141.417969 215.96875 C 136.179688 209.539062 132.542969 202.273438 130.148438 194.359375 C 129.15625 191.082031 128.71875 187.699219 128.410156 184.300781 C 128.058594 180.425781 127.875 176.546875 128.121094 172.65625 C 128.175781 171.804688 128.316406 170.957031 128.578125 170.144531 C 128.886719 169.175781 129.601562 168.953125 130.503906 169.421875 C 131.199219 169.785156 131.273438 170.421875 131.328125 171.070312 C 131.550781 173.683594 131.738281 176.304688 131.972656 178.917969 C 132.160156 181.023438 132.253906 183.140625 132.691406 185.210938 C 134.28125 192.714844 137.207031 199.625 141.859375 205.765625 C 143.074219 207.371094 144.34375 208.925781 145.792969 210.328125 C 146.507812 211.023438 146.78125 211.058594 147.6875 210.585938 C 148.59375 210.113281 149.492188 209.628906 150.394531 209.148438 C 151.089844 208.78125 151.714844 208.316406 152.289062 207.773438 C 155.300781 204.921875 157.078125 201.46875 157.5625 197.324219 C 157.980469 193.738281 157.871094 190.1875 157.371094 186.621094 C 156.230469 178.507812 152.796875 171.660156 146.5625 166.230469 C 142.757812 162.921875 138.945312 159.621094 135.074219 156.390625 C 132.941406 154.609375 131.0625 152.601562 129.617188 150.207031 C 129.511719 150.027344 129.453125 149.765625 129.125 149.742188 C 128.414062 151.0625 127.734375 152.398438 126.992188 153.699219 C 124.773438 157.570312 122.488281 161.40625 120.449219 165.382812 C 118.113281 169.9375 115.988281 174.574219 114.695312 179.554688 C 113.621094 183.6875 112.722656 187.847656 112.589844 192.132812 C 112.386719 198.828125 114.242188 204.996094 117.449219 210.796875 C 118.761719 213.167969 120.375 215.320312 122.371094 217.164062 C 124.332031 218.980469 126.554688 220.332031 129.230469 220.785156 C 132.1875 221.285156 135.140625 221.191406 138.046875 220.457031 C 139.882812 219.992188 141.476562 219.023438 142.984375 217.785156 C 142.703125 217.453125 142.464844 217.171875 142.226562 216.894531 Z M 228.015625 111.949219 C 225.167969 109.664062 222.542969 107.128906 219.878906 104.640625 C 215.902344 100.933594 211.726562 97.480469 206.976562 94.808594 C 201.515625 91.738281 195.746094 89.59375 189.382812 89.386719 C 181.585938 89.136719 174.679688 91.421875 168.792969 96.601562 C 166.65625 98.484375 164.816406 100.625 163.601562 103.242188 C 162.992188 104.550781 162.570312 105.917969 162.550781 107.375 C 162.535156 108.503906 162.789062 108.640625 163.753906 108.128906 C 170.996094 104.285156 178.730469 102.214844 186.890625 101.636719 C 192.609375 101.230469 198.0625 102.457031 203.417969 104.289062 C 204.1875 104.550781 204.921875 104.925781 205.652344 105.292969 C 206.207031 105.570312 206.53125 106.027344 206.484375 106.695312 C 206.371094 108.207031 205.59375 108.851562 204.109375 108.648438 C 204.007812 108.632812 203.910156 108.605469 203.808594 108.589844 C 201.1875 108.160156 198.605469 107.523438 195.96875 107.171875 C 193.738281 106.875 191.503906 106.625 189.25 106.734375 C 187.414062 106.824219 185.585938 107.019531 183.761719 107.289062 C 181.199219 107.667969 178.660156 108.125 176.25 109.144531 C 172.984375 110.527344 169.820312 112.113281 166.753906 113.894531 C 166.515625 114.03125 166.289062 114.183594 166.066406 114.335938 C 165.882812 114.460938 165.839844 114.628906 165.84375 114.859375 C 165.898438 117.914062 166.695312 120.777344 168.011719 123.515625 C 169.234375 126.066406 171 128.121094 173.378906 129.675781 C 178.417969 132.96875 183.945312 134.332031 189.90625 133.847656 C 194.992188 133.433594 199.789062 131.972656 204.273438 129.5 C 208.375 127.234375 212.1875 124.558594 215.792969 121.574219 C 219.074219 118.851562 222.53125 116.363281 226.046875 113.953125 C 226.824219 113.421875 227.640625 112.945312 228.417969 112.457031 C 228.375 112.15625 228.167969 112.066406 228.015625 111.949219 Z M 220.117188 217.503906 C 220.621094 217.054688 221.074219 216.929688 221.503906 216.78125 C 225.765625 215.320312 229.695312 213.1875 233.402344 210.671875 C 238.277344 207.363281 242.363281 203.21875 245.484375 198.195312 C 247.140625 195.527344 248.066406 192.546875 248.773438 189.492188 C 250 184.191406 250.410156 178.828125 250.128906 173.402344 C 249.585938 163.089844 246.730469 153.527344 240.992188 144.886719 C 239.46875 142.59375 237.804688 140.402344 235.699219 138.589844 C 235.601562 138.507812 235.488281 138.425781 235.484375 138.191406 C 236.007812 137.800781 236.671875 137.617188 237.316406 137.410156 C 238.136719 137.144531 238.964844 136.894531 239.734375 136.515625 C 240.226562 136.277344 240.480469 136.410156 240.800781 136.804688 C 243.320312 139.875 245.394531 143.222656 246.976562 146.855469 C 249.707031 153.117188 251.546875 159.625 252.320312 166.433594 C 252.757812 170.292969 253.039062 174.152344 253.023438 178.035156 C 253.003906 183.375 252.265625 188.597656 250.347656 193.617188 C 248.914062 197.363281 246.671875 200.578125 244.019531 203.535156 C 240.550781 207.402344 236.492188 210.488281 231.824219 212.785156 C 228.789062 214.273438 225.730469 215.699219 222.570312 216.898438 C 221.835938 217.179688 221.105469 217.5 220.117188 217.503906 Z M 129.558594 174.46875 C 129.5 177.675781 129.65625 180.875 129.941406 184.070312 C 130.230469 187.261719 130.644531 190.4375 131.519531 193.53125 C 133.351562 200.015625 136.257812 206 140.011719 211.582031 C 141.597656 213.933594 143.375 216.140625 145.488281 218.039062 C 150.207031 222.269531 155.683594 225.160156 161.714844 227.023438 C 165.964844 228.335938 170.339844 228.96875 174.742188 229.40625 C 176.429688 229.574219 176.214844 229.621094 176.332031 228.03125 C 176.363281 227.621094 176.433594 227.21875 176.457031 226.808594 C 176.484375 226.308594 176.625 225.804688 176.453125 225.285156 C 174.816406 225.5 173.226562 225.339844 171.664062 224.992188 C 165.914062 223.722656 160.425781 221.746094 155.253906 218.914062 C 151.019531 216.59375 147.09375 213.84375 143.703125 210.386719 C 141.496094 208.140625 139.769531 205.511719 138.011719 202.914062 C 136.339844 200.4375 135.203125 197.695312 134.054688 194.964844 C 132.414062 191.054688 131.214844 187.003906 130.773438 182.769531 C 130.40625 179.246094 130.15625 175.710938 129.84375 172.050781 C 129.558594 172.914062 129.574219 173.695312 129.558594 174.46875 Z M 144.515625 132.066406 C 144.832031 132.332031 145.046875 132.253906 145.257812 131.933594 C 145.871094 130.988281 146.5 130.058594 147.113281 129.117188 C 148.230469 127.394531 149.523438 125.8125 151.023438 124.410156 C 153.414062 122.175781 155.925781 120.082031 158.507812 118.078125 C 160.527344 116.511719 162.480469 114.859375 164.605469 113.4375 C 167.15625 111.730469 169.902344 110.367188 172.671875 109.050781 C 175.070312 107.910156 177.503906 106.851562 180.132812 106.335938 C 181.800781 106.007812 183.488281 105.792969 185.171875 105.554688 C 189.046875 105.007812 192.90625 105.117188 196.761719 105.730469 C 199.011719 106.089844 201.246094 106.535156 203.476562 106.988281 C 203.773438 107.050781 204.085938 107.058594 204.390625 107.070312 C 204.574219 107.078125 204.738281 106.972656 204.792969 106.808594 C 204.859375 106.605469 204.6875 106.519531 204.527344 106.445312 C 204.28125 106.328125 204.039062 106.207031 203.789062 106.09375 C 202.261719 105.40625 200.648438 104.992188 199.035156 104.5625 C 196.371094 103.851562 193.6875 103.277344 190.910156 103.175781 C 186.003906 103 181.203125 103.644531 176.46875 104.867188 C 170.378906 106.4375 164.675781 108.847656 159.59375 112.613281 C 153.886719 116.84375 148.746094 121.71875 143.789062 126.789062 C 142.84375 127.757812 141.929688 128.773438 141.101562 130.015625 C 142.363281 130.648438 143.515625 131.234375 144.515625 132.066406 Z M 144.515625 132.066406 " fill-opacity="1" fill-rule="nonzero"/><path fill="#090907" d="M 247.96875 167.144531 C 247.796875 165.171875 247.464844 163.25 246.941406 161.375 C 245.023438 154.507812 242.050781 148.160156 237.597656 142.550781 C 236.75 141.484375 235.792969 140.523438 234.789062 139.605469 C 234.546875 139.382812 234.289062 139.164062 234.082031 138.910156 C 233.535156 138.242188 233.640625 137.613281 234.390625 137.175781 C 235.195312 136.703125 236.078125 136.414062 236.960938 136.128906 C 237.652344 135.90625 238.347656 135.691406 239.03125 135.445312 C 239.332031 135.335938 239.605469 135.214844 239.808594 134.894531 C 240.15625 134.351562 241.019531 134.359375 241.273438 134.9375 C 241.796875 136.121094 242.730469 136.984375 243.460938 137.996094 C 246.726562 142.53125 248.988281 147.542969 250.722656 152.835938 C 252.402344 157.964844 253.441406 163.207031 253.929688 168.574219 C 253.953125 168.863281 253.925781 169.171875 254.152344 169.480469 C 255.328125 169.128906 256.527344 168.773438 257.773438 168.621094 C 260.3125 168.308594 262.734375 168.578125 264.894531 170.089844 C 265.773438 170.707031 266.476562 171.496094 267.066406 172.386719 C 268.894531 175.144531 269.988281 178.1875 270.367188 181.457031 C 271.433594 190.703125 269.464844 199.246094 264.214844 206.964844 C 261.042969 211.628906 256.929688 215.351562 252.355469 218.59375 C 244.890625 223.882812 236.605469 227.226562 227.652344 228.945312 C 224.425781 229.566406 221.15625 229.796875 217.878906 229.976562 C 211.925781 230.304688 205.964844 230.226562 200.003906 230.265625 C 199.601562 230.269531 199.191406 230.292969 198.949219 229.878906 C 198.679688 229.425781 198.914062 229.046875 199.15625 228.683594 C 201.882812 224.566406 203.246094 219.953125 203.996094 215.132812 C 205 208.71875 206.074219 202.324219 207.765625 196.039062 C 210.042969 187.558594 213.945312 179.917969 219.367188 173.054688 C 222.113281 169.582031 225.503906 166.847656 229.46875 164.847656 C 231.539062 163.800781 233.726562 163.226562 236.042969 163.128906 C 238.308594 163.035156 240.425781 163.714844 242.519531 164.445312 C 244.421875 165.109375 246.261719 165.925781 247.96875 167.144531 Z M 200.753906 228.75 C 201.101562 228.980469 201.375 228.917969 201.632812 228.917969 C 205.707031 228.933594 209.78125 228.9375 213.851562 228.804688 C 217.195312 228.695312 220.539062 228.554688 223.863281 228.171875 C 228.792969 227.605469 233.554688 226.359375 238.1875 224.605469 C 246.585938 221.421875 254.035156 216.75 260.066406 210.046875 C 267.433594 201.859375 270.320312 192.1875 268.992188 181.273438 C 268.617188 178.207031 267.535156 175.359375 265.746094 172.8125 C 264.773438 171.425781 263.457031 170.523438 261.816406 170.117188 C 259.390625 169.515625 257.023438 169.863281 254.679688 170.601562 C 254.246094 170.734375 254.144531 170.996094 254.171875 171.421875 C 254.25 172.746094 254.3125 174.070312 254.347656 175.394531 C 254.46875 179.8125 254.289062 184.207031 253.296875 188.542969 C 252.386719 192.515625 251.039062 196.304688 248.742188 199.703125 C 244.628906 205.785156 239.347656 210.542969 232.769531 213.832031 C 229.359375 215.535156 225.933594 217.1875 222.308594 218.398438 C 221.160156 218.78125 220.003906 218.972656 218.800781 218.679688 C 218.414062 218.582031 217.941406 218.597656 217.824219 218.136719 C 217.699219 217.667969 217.910156 217.214844 218.230469 216.871094 C 218.429688 216.660156 218.710938 216.511719 218.976562 216.394531 C 219.824219 216.015625 220.664062 215.617188 221.535156 215.308594 C 223.507812 214.605469 225.398438 213.738281 227.234375 212.738281 C 229.878906 211.289062 232.519531 209.839844 234.878906 207.9375 C 236.976562 206.246094 238.839844 204.316406 240.675781 202.359375 C 243.613281 199.234375 245.679688 195.609375 246.847656 191.484375 C 247.527344 189.089844 247.972656 186.644531 248.351562 184.1875 C 249.0625 179.5625 248.914062 174.933594 248.503906 170.296875 C 248.449219 169.699219 248.214844 169.25 247.757812 168.855469 C 244.796875 166.28125 241.226562 165.097656 237.457031 164.542969 C 234.726562 164.140625 232.140625 164.933594 229.714844 166.207031 C 225.59375 168.375 222.210938 171.386719 219.433594 175.113281 C 214.234375 182.085938 210.625 189.792969 208.546875 198.25 C 207.195312 203.761719 206.25 209.34375 205.375 214.941406 C 204.824219 218.453125 204.027344 221.902344 202.566406 225.167969 C 202.027344 226.371094 201.402344 227.535156 200.753906 228.75 Z M 220.117188 217.503906 C 221.105469 217.5 221.835938 217.179688 222.570312 216.898438 C 225.730469 215.699219 228.789062 214.273438 231.824219 212.785156 C 236.492188 210.488281 240.550781 207.402344 244.019531 203.535156 C 246.671875 200.578125 248.914062 197.363281 250.347656 193.617188 C 252.265625 188.597656 253.003906 183.375 253.023438 178.035156 C 253.039062 174.152344 252.757812 170.292969 252.320312 166.433594 C 251.546875 159.625 249.707031 153.117188 246.976562 146.855469 C 245.394531 143.222656 243.320312 139.875 240.800781 136.804688 C 240.480469 136.410156 240.226562 136.277344 239.734375 136.515625 C 238.964844 136.894531 238.136719 137.144531 237.316406 137.410156 C 236.671875 137.617188 236.007812 137.800781 235.484375 138.191406 C 235.488281 138.425781 235.601562 138.507812 235.699219 138.589844 C 237.804688 140.402344 239.46875 142.59375 240.992188 144.886719 C 246.730469 153.527344 249.585938 163.089844 250.128906 173.402344 C 250.410156 178.828125 250 184.191406 248.773438 189.492188 C 248.066406 192.546875 247.140625 195.527344 245.484375 198.195312 C 242.363281 203.21875 238.277344 207.363281 233.402344 210.671875 C 229.695312 213.1875 225.765625 215.320312 221.503906 216.78125 C 221.074219 216.929688 220.621094 217.054688 220.117188 217.503906 Z M 148.054688 212.140625 C 148.207031 212.492188 148.535156 212.632812 148.796875 212.835938 C 155.222656 217.882812 162.503906 221.125 170.382812 223.121094 C 172.410156 223.636719 174.441406 223.949219 176.542969 223.753906 C 177.683594 223.648438 178.128906 224.121094 178.039062 225.261719 C 177.914062 226.789062 177.722656 228.3125 177.5625 229.839844 C 177.511719 230.3125 177.246094 230.457031 176.773438 230.585938 C 174.972656 231.09375 173.203125 230.683594 171.433594 230.5 C 166.742188 230.003906 162.164062 229.03125 157.769531 227.269531 C 152.890625 225.316406 148.402344 222.726562 144.496094 219.191406 C 144.113281 218.84375 143.871094 218.828125 143.472656 219.144531 C 141.855469 220.417969 140.117188 221.488281 138.085938 221.964844 C 134.722656 222.753906 131.332031 222.820312 127.964844 222.035156 C 125.558594 221.472656 123.507812 220.191406 121.683594 218.550781 C 118.292969 215.511719 115.957031 211.738281 114.199219 207.582031 C 112.636719 203.894531 111.53125 200.074219 111.203125 196.058594 C 110.945312 192.886719 111.144531 189.726562 111.632812 186.582031 C 112.890625 178.511719 115.679688 170.984375 119.570312 163.832031 C 120.96875 161.257812 122.335938 158.667969 123.847656 156.160156 C 125.273438 153.792969 126.578125 151.367188 127.851562 148.917969 C 127.945312 148.738281 128.03125 148.550781 128.128906 148.371094 C 128.753906 147.246094 129.515625 147.175781 130.164062 148.320312 C 132.242188 151.988281 135.292969 154.730469 138.511719 157.335938 C 142.089844 160.230469 145.539062 163.273438 148.90625 166.410156 C 154.21875 171.359375 157.234375 177.527344 158.546875 184.59375 C 159.097656 187.546875 159.441406 190.53125 159.347656 193.542969 C 159.253906 196.410156 159.027344 199.28125 157.96875 201.980469 C 156.441406 205.871094 154.007812 209.019531 150.179688 210.933594 C 149.453125 211.296875 148.714844 211.652344 148.054688 212.140625 Z M 142.984375 217.785156 C 142.703125 217.453125 142.464844 217.171875 142.226562 216.894531 C 141.957031 216.585938 141.675781 216.285156 141.417969 215.96875 C 136.179688 209.539062 132.542969 202.273438 130.148438 194.359375 C 129.15625 191.082031 128.71875 187.699219 128.410156 184.300781 C 128.058594 180.425781 127.875 176.546875 128.121094 172.65625 C 128.175781 171.804688 128.316406 170.957031 128.578125 170.144531 C 128.886719 169.175781 129.601562 168.953125 130.503906 169.421875 C 131.199219 169.785156 131.273438 170.421875 131.328125 171.070312 C 131.550781 173.683594 131.738281 176.304688 131.972656 178.917969 C 132.160156 181.023438 132.253906 183.140625 132.691406 185.210938 C 134.28125 192.714844 137.207031 199.625 141.859375 205.765625 C 143.074219 207.371094 144.34375 208.925781 145.792969 210.328125 C 146.507812 211.023438 146.78125 211.058594 147.6875 210.585938 C 148.59375 210.113281 149.492188 209.628906 150.394531 209.148438 C 151.089844 208.78125 151.714844 208.316406 152.289062 207.773438 C 155.300781 204.921875 157.078125 201.46875 157.5625 197.324219 C 157.980469 193.738281 157.871094 190.1875 157.371094 186.621094 C 156.230469 178.507812 152.796875 171.660156 146.5625 166.230469 C 142.757812 162.921875 138.945312 159.621094 135.074219 156.390625 C 132.941406 154.609375 131.0625 152.601562 129.617188 150.207031 C 129.511719 150.027344 129.453125 149.765625 129.125 149.742188 C 128.414062 151.0625 127.734375 152.398438 126.992188 153.699219 C 124.773438 157.570312 122.488281 161.40625 120.449219 165.382812 C 118.113281 169.9375 115.988281 174.574219 114.695312 179.554688 C 113.621094 183.6875 112.722656 187.847656 112.589844 192.132812 C 112.386719 198.828125 114.242188 204.996094 117.449219 210.796875 C 118.761719 213.167969 120.375 215.320312 122.371094 217.164062 C 124.332031 218.980469 126.554688 220.332031 129.230469 220.785156 C 132.1875 221.285156 135.140625 221.191406 138.046875 220.457031 C 139.882812 219.992188 141.476562 219.023438 142.984375 217.785156 Z M 129.84375 172.050781 C 129.558594 172.914062 129.574219 173.695312 129.558594 174.46875 C 129.5 177.675781 129.65625 180.875 129.941406 184.070312 C 130.230469 187.261719 130.644531 190.4375 131.519531 193.53125 C 133.351562 200.015625 136.257812 206 140.011719 211.582031 C 141.597656 213.933594 143.375 216.140625 145.488281 218.039062 C 150.207031 222.269531 155.683594 225.160156 161.714844 227.023438 C 165.964844 228.335938 170.339844 228.96875 174.742188 229.40625 C 176.429688 229.574219 176.214844 229.621094 176.332031 228.03125 C 176.363281 227.621094 176.433594 227.21875 176.457031 226.808594 C 176.484375 226.308594 176.625 225.804688 176.453125 225.285156 C 174.816406 225.5 173.226562 225.339844 171.664062 224.992188 C 165.914062 223.722656 160.425781 221.746094 155.253906 218.914062 C 151.019531 216.59375 147.09375 213.84375 143.703125 210.386719 C 141.496094 208.140625 139.769531 205.511719 138.011719 202.914062 C 136.339844 200.4375 135.203125 197.695312 134.054688 194.964844 C 132.414062 191.054688 131.214844 187.003906 130.773438 182.769531 C 130.40625 179.246094 130.15625 175.710938 129.84375 172.050781 Z M 164.296875 115.652344 C 164.175781 115.636719 164.0625 115.707031 163.953125 115.789062 C 159.9375 118.894531 155.890625 121.960938 152.179688 125.4375 C 150.699219 126.820312 149.425781 128.363281 148.324219 130.058594 C 147.660156 131.085938 146.984375 132.113281 146.261719 133.105469 C 145.484375 134.171875 144.894531 134.242188 143.882812 133.425781 C 142.761719 132.523438 141.589844 131.726562 140.230469 131.222656 C 139.679688 131.019531 139.476562 130.027344 139.828125 129.367188 C 139.9375 129.160156 140.101562 128.980469 140.242188 128.789062 C 142.414062 125.878906 144.949219 123.308594 147.605469 120.851562 C 151.128906 117.589844 154.625 114.289062 158.542969 111.480469 C 159.429688 110.847656 160.328125 110.234375 161.246094 109.644531 C 161.59375 109.417969 161.675781 109.25 161.472656 108.839844 C 160.984375 107.839844 161.132812 106.773438 161.3125 105.726562 C 161.847656 102.628906 163.433594 100.074219 165.5 97.792969 C 170.300781 92.492188 176.257812 89.335938 183.308594 88.226562 C 190.042969 87.171875 196.441406 88.386719 202.660156 90.996094 C 207.863281 93.179688 212.449219 96.328125 216.773438 99.898438 C 218.824219 101.589844 220.761719 103.414062 222.699219 105.234375 C 224.90625 107.3125 227.15625 109.347656 229.515625 111.257812 C 229.726562 111.429688 229.945312 111.597656 230.128906 111.796875 C 230.648438 112.363281 230.585938 112.890625 229.96875 113.355469 C 229.886719 113.417969 229.792969 113.460938 229.703125 113.511719 C 224.914062 116.226562 220.597656 119.605469 216.332031 123.058594 C 213.308594 125.503906 210.160156 127.761719 206.828125 129.769531 C 201.917969 132.730469 196.652344 134.65625 190.941406 135.25 C 183.972656 135.976562 177.550781 134.464844 171.785156 130.382812 C 169.136719 128.507812 167.371094 125.96875 166.152344 123.015625 C 165.230469 120.769531 164.441406 118.484375 164.460938 116.007812 C 164.464844 115.878906 164.472656 115.730469 164.296875 115.652344 Z M 228.417969 112.457031 C 228.375 112.15625 228.167969 112.066406 228.015625 111.949219 C 225.167969 109.664062 222.542969 107.128906 219.878906 104.640625 C 215.902344 100.933594 211.726562 97.480469 206.976562 94.808594 C 201.515625 91.738281 195.746094 89.59375 189.382812 89.386719 C 181.585938 89.136719 174.679688 91.421875 168.792969 96.601562 C 166.65625 98.484375 164.816406 100.625 163.601562 103.242188 C 162.992188 104.550781 162.570312 105.917969 162.550781 107.375 C 162.535156 108.503906 162.789062 108.640625 163.753906 108.128906 C 170.996094 104.285156 178.730469 102.214844 186.890625 101.636719 C 192.609375 101.230469 198.0625 102.457031 203.417969 104.289062 C 204.1875 104.550781 204.921875 104.925781 205.652344 105.292969 C 206.207031 105.570312 206.53125 106.027344 206.484375 106.695312 C 206.371094 108.207031 205.59375 108.851562 204.109375 108.648438 C 204.007812 108.632812 203.910156 108.605469 203.808594 108.589844 C 201.1875 108.160156 198.605469 107.523438 195.96875 107.171875 C 193.738281 106.875 191.503906 106.625 189.25 106.734375 C 187.414062 106.824219 185.585938 107.019531 183.761719 107.289062 C 181.199219 107.667969 178.660156 108.125 176.25 109.144531 C 172.984375 110.527344 169.820312 112.113281 166.753906 113.894531 C 166.515625 114.03125 166.289062 114.183594 166.066406 114.335938 C 165.882812 114.460938 165.839844 114.628906 165.84375 114.859375 C 165.898438 117.914062 166.695312 120.777344 168.011719 123.515625 C 169.234375 126.066406 171 128.121094 173.378906 129.675781 C 178.417969 132.96875 183.945312 134.332031 189.90625 133.847656 C 194.992188 133.433594 199.789062 131.972656 204.273438 129.5 C 208.375 127.234375 212.1875 124.558594 215.792969 121.574219 C 219.074219 118.851562 222.53125 116.363281 226.046875 113.953125 C 226.824219 113.421875 227.640625 112.945312 228.417969 112.457031 Z M 141.101562 130.015625 C 142.363281 130.648438 143.515625 131.234375 144.515625 132.066406 C 144.832031 132.332031 145.046875 132.253906 145.257812 131.933594 C 145.871094 130.988281 146.5 130.058594 147.113281 129.117188 C 148.230469 127.394531 149.523438 125.8125 151.023438 124.410156 C 153.414062 122.175781 155.925781 120.082031 158.507812 118.078125 C 160.527344 116.511719 162.480469 114.859375 164.605469 113.4375 C 167.15625 111.730469 169.902344 110.367188 172.671875 109.050781 C 175.070312 107.910156 177.503906 106.851562 180.132812 106.335938 C 181.800781 106.007812 183.488281 105.792969 185.171875 105.554688 C 189.046875 105.007812 192.90625 105.117188 196.761719 105.730469 C 199.011719 106.089844 201.246094 106.535156 203.476562 106.988281 C 203.773438 107.050781 204.085938 107.058594 204.390625 107.070312 C 204.574219 107.078125 204.738281 106.972656 204.792969 106.808594 C 204.859375 106.605469 204.6875 106.519531 204.527344 106.445312 C 204.28125 106.328125 204.039062 106.207031 203.789062 106.09375 C 202.261719 105.40625 200.648438 104.992188 199.035156 104.5625 C 196.371094 103.851562 193.6875 103.277344 190.910156 103.175781 C 186.003906 103 181.203125 103.644531 176.46875 104.867188 C 170.378906 106.4375 164.675781 108.847656 159.59375 112.613281 C 153.886719 116.84375 148.746094 121.71875 143.789062 126.789062 C 142.84375 127.757812 141.929688 128.773438 141.101562 130.015625 Z M 141.101562 130.015625 " fill-opacity="1" fill-rule="nonzero"/></g><path fill="#87c75c" d="M 200.753906 228.75 C 201.402344 227.535156 202.027344 226.371094 202.566406 225.167969 C 204.027344 221.902344 204.824219 218.453125 205.375 214.941406 C 206.25 209.34375 207.195312 203.761719 208.546875 198.25 C 210.625 189.792969 214.234375 182.085938 219.433594 175.113281 C 222.210938 171.386719 225.59375 168.375 229.714844 166.207031 C 232.140625 164.933594 234.726562 164.140625 237.457031 164.542969 C 241.226562 165.097656 244.796875 166.28125 247.757812 168.855469 C 248.214844 169.25 248.449219 169.699219 248.503906 170.296875 C 248.914062 174.933594 249.0625 179.5625 248.351562 184.1875 C 247.972656 186.644531 247.527344 189.089844 246.847656 191.484375 C 245.679688 195.609375 243.613281 199.234375 240.675781 202.359375 C 238.839844 204.316406 236.976562 206.246094 234.878906 207.9375 C 232.519531 209.839844 229.878906 211.289062 227.234375 212.738281 C 225.398438 213.738281 223.507812 214.605469 221.535156 215.308594 C 220.664062 215.617188 219.824219 216.015625 218.976562 216.394531 C 218.710938 216.511719 218.429688 216.660156 218.230469 216.871094 C 217.910156 217.214844 217.699219 217.667969 217.824219 218.136719 C 217.941406 218.597656 218.414062 218.582031 218.800781 218.679688 C 220.003906 218.972656 221.160156 218.78125 222.308594 218.398438 C 225.933594 217.1875 229.359375 215.535156 232.769531 213.832031 C 239.347656 210.542969 244.628906 205.785156 248.742188 199.703125 C 251.039062 196.304688 252.386719 192.515625 253.296875 188.542969 C 254.289062 184.207031 254.46875 179.8125 254.347656 175.394531 C 254.3125 174.070312 254.25 172.746094 254.171875 171.421875 C 254.144531 170.996094 254.246094 170.734375 254.679688 170.601562 C 257.023438 169.863281 259.390625 169.515625 261.816406 170.117188 C 263.457031 170.523438 264.773438 171.425781 265.746094 172.8125 C 267.535156 175.359375 268.617188 178.207031 268.992188 181.273438 C 270.320312 192.1875 267.433594 201.859375 260.066406 210.046875 C 254.035156 216.75 246.585938 221.421875 238.1875 224.605469 C 233.554688 226.359375 228.792969 227.605469 223.863281 228.171875 C 220.539062 228.554688 217.195312 228.695312 213.851562 228.804688 C 209.78125 228.9375 205.707031 228.933594 201.632812 228.917969 C 201.375 228.917969 201.101562 228.980469 200.753906 228.75 Z M 142.226562 216.894531 C 141.957031 216.585938 141.675781 216.285156 141.417969 215.96875 C 136.179688 209.539062 132.542969 202.273438 130.148438 194.359375 C 129.15625 191.082031 128.71875 187.699219 128.410156 184.300781 C 128.058594 180.425781 127.875 176.546875 128.121094 172.65625 C 128.175781 171.804688 128.316406 170.957031 128.578125 170.144531 C 128.886719 169.175781 129.601562 168.953125 130.503906 169.421875 C 131.199219 169.785156 131.273438 170.421875 131.328125 171.070312 C 131.550781 173.683594 131.738281 176.304688 131.972656 178.917969 C 132.160156 181.023438 132.253906 183.140625 132.691406 185.210938 C 134.28125 192.714844 137.207031 199.625 141.859375 205.765625 C 143.074219 207.371094 144.34375 208.925781 145.792969 210.328125 C 146.507812 211.023438 146.78125 211.058594 147.6875 210.585938 C 148.59375 210.113281 149.492188 209.628906 150.394531 209.148438 C 151.089844 208.78125 151.714844 208.316406 152.289062 207.773438 C 155.300781 204.921875 157.078125 201.46875 157.5625 197.324219 C 157.980469 193.738281 157.871094 190.1875 157.371094 186.621094 C 156.230469 178.507812 152.796875 171.660156 146.5625 166.230469 C 142.757812 162.921875 138.945312 159.621094 135.074219 156.390625 C 132.941406 154.609375 131.0625 152.601562 129.617188 150.207031 C 129.511719 150.027344 129.453125 149.765625 129.125 149.742188 C 128.414062 151.0625 127.734375 152.398438 126.992188 153.699219 C 124.773438 157.570312 122.488281 161.40625 120.449219 165.382812 C 118.113281 169.9375 115.988281 174.574219 114.695312 179.554688 C 113.621094 183.6875 112.722656 187.847656 112.589844 192.132812 C 112.386719 198.828125 114.242188 204.996094 117.449219 210.796875 C 118.761719 213.167969 120.375 215.320312 122.371094 217.164062 C 124.332031 218.980469 126.554688 220.332031 129.230469 220.785156 C 132.1875 221.285156 135.140625 221.191406 138.046875 220.457031 C 139.882812 219.992188 141.476562 219.023438 142.984375 217.785156 C 142.703125 217.453125 142.464844 217.171875 142.226562 216.894531 Z M 228.015625 111.949219 C 225.167969 109.664062 222.542969 107.128906 219.878906 104.640625 C 215.902344 100.933594 211.726562 97.480469 206.976562 94.808594 C 201.515625 91.738281 195.746094 89.59375 189.382812 89.386719 C 181.585938 89.136719 174.679688 91.421875 168.792969 96.601562 C 166.65625 98.484375 164.816406 100.625 163.601562 103.242188 C 162.992188 104.550781 162.570312 105.917969 162.550781 107.375 C 162.535156 108.503906 162.789062 108.640625 163.753906 108.128906 C 170.996094 104.285156 178.730469 102.214844 186.890625 101.636719 C 192.609375 101.230469 198.0625 102.457031 203.417969 104.289062 C 204.1875 104.550781 204.921875 104.925781 205.652344 105.292969 C 206.207031 105.570312 206.53125 106.027344 206.484375 106.695312 C 206.371094 108.207031 205.59375 108.851562 204.109375 108.648438 C 204.007812 108.632812 203.910156 108.605469 203.808594 108.589844 C 201.1875 108.160156 198.605469 107.523438 195.96875 107.171875 C 193.738281 106.875 191.503906 106.625 189.25 106.734375 C 187.414062 106.824219 185.585938 107.019531 183.761719 107.289062 C 181.199219 107.667969 178.660156 108.125 176.25 109.144531 C 172.984375 110.527344 169.820312 112.113281 166.753906 113.894531 C 166.515625 114.03125 166.289062 114.183594 166.066406 114.335938 C 165.882812 114.460938 165.839844 114.628906 165.84375 114.859375 C 165.898438 117.914062 166.695312 120.777344 168.011719 123.515625 C 169.234375 126.066406 171 128.121094 173.378906 129.675781 C 178.417969 132.96875 183.945312 134.332031 189.90625 133.847656 C 194.992188 133.433594 199.789062 131.972656 204.273438 129.5 C 208.375 127.234375 212.1875 124.558594 215.792969 121.574219 C 219.074219 118.851562 222.53125 116.363281 226.046875 113.953125 C 226.824219 113.421875 227.640625 112.945312 228.417969 112.457031 C 228.375 112.15625 228.167969 112.066406 228.015625 111.949219 Z M 228.015625 111.949219 " fill-opacity="1" fill-rule="nonzero"/><path fill="#187b1b" d="M 220.117188 217.503906 C 220.621094 217.054688 221.074219 216.929688 221.503906 216.78125 C 225.765625 215.320312 229.695312 213.1875 233.402344 210.671875 C 238.277344 207.363281 242.363281 203.21875 245.484375 198.195312 C 247.140625 195.527344 248.066406 192.546875 248.773438 189.492188 C 250 184.191406 250.410156 178.828125 250.128906 173.402344 C 249.585938 163.089844 246.730469 153.527344 240.992188 144.886719 C 239.46875 142.59375 237.804688 140.402344 235.699219 138.589844 C 235.601562 138.507812 235.488281 138.425781 235.484375 138.191406 C 236.007812 137.800781 236.671875 137.617188 237.316406 137.410156 C 238.136719 137.144531 238.964844 136.894531 239.734375 136.515625 C 240.226562 136.277344 240.480469 136.410156 240.800781 136.804688 C 243.320312 139.875 245.394531 143.222656 246.976562 146.855469 C 249.707031 153.117188 251.546875 159.625 252.320312 166.433594 C 252.757812 170.292969 253.039062 174.152344 253.023438 178.035156 C 253.003906 183.375 252.265625 188.597656 250.347656 193.617188 C 248.914062 197.363281 246.671875 200.578125 244.019531 203.535156 C 240.550781 207.402344 236.492188 210.488281 231.824219 212.785156 C 228.789062 214.273438 225.730469 215.699219 222.570312 216.898438 C 221.835938 217.179688 221.105469 217.5 220.117188 217.503906 Z M 129.558594 174.46875 C 129.5 177.675781 129.65625 180.875 129.941406 184.070312 C 130.230469 187.261719 130.644531 190.4375 131.519531 193.53125 C 133.351562 200.015625 136.257812 206 140.011719 211.582031 C 141.597656 213.933594 143.375 216.140625 145.488281 218.039062 C 150.207031 222.269531 155.683594 225.160156 161.714844 227.023438 C 165.964844 228.335938 170.339844 228.96875 174.742188 229.40625 C 176.429688 229.574219 176.214844 229.621094 176.332031 228.03125 C 176.363281 227.621094 176.433594 227.21875 176.457031 226.808594 C 176.484375 226.308594 176.625 225.804688 176.453125 225.285156 C 174.816406 225.5 173.226562 225.339844 171.664062 224.992188 C 165.914062 223.722656 160.425781 221.746094 155.253906 218.914062 C 151.019531 216.59375 147.09375 213.84375 143.703125 210.386719 C 141.496094 208.140625 139.769531 205.511719 138.011719 202.914062 C 136.339844 200.4375 135.203125 197.695312 134.054688 194.964844 C 132.414062 191.054688 131.214844 187.003906 130.773438 182.769531 C 130.40625 179.246094 130.15625 175.710938 129.84375 172.050781 C 129.558594 172.914062 129.574219 173.695312 129.558594 174.46875 Z M 144.515625 132.066406 C 144.832031 132.332031 145.046875 132.253906 145.257812 131.933594 C 145.871094 130.988281 146.5 130.058594 147.113281 129.117188 C 148.230469 127.394531 149.523438 125.8125 151.023438 124.410156 C 153.414062 122.175781 155.925781 120.082031 158.507812 118.078125 C 160.527344 116.511719 162.480469 114.859375 164.605469 113.4375 C 167.15625 111.730469 169.902344 110.367188 172.671875 109.050781 C 175.070312 107.910156 177.503906 106.851562 180.132812 106.335938 C 181.800781 106.007812 183.488281 105.792969 185.171875 105.554688 C 189.046875 105.007812 192.90625 105.117188 196.761719 105.730469 C 199.011719 106.089844 201.246094 106.535156 203.476562 106.988281 C 203.773438 107.050781 204.085938 107.058594 204.390625 107.070312 C 204.574219 107.078125 204.738281 106.972656 204.792969 106.808594 C 204.859375 106.605469 204.6875 106.519531 204.527344 106.445312 C 204.28125 106.328125 204.039062 106.207031 203.789062 106.09375 C 202.261719 105.40625 200.648438 104.992188 199.035156 104.5625 C 196.371094 103.851562 193.6875 103.277344 190.910156 103.175781 C 186.003906 103 181.203125 103.644531 176.46875 104.867188 C 170.378906 106.4375 164.675781 108.847656 159.59375 112.613281 C 153.886719 116.84375 148.746094 121.71875 143.789062 126.789062 C 142.84375 127.757812 141.929688 128.773438 141.101562 130.015625 C 142.363281 130.648438 143.515625 131.234375 144.515625 132.066406 Z M 144.515625 132.066406 " fill-opacity="1" fill-rule="nonzero"/><g clip-path="url(#37380d7fdf)"><path fill="#000000" d="M 202.371094 160.34375 L 204.132812 160.34375 C 203.59375 164.648438 201.261719 183.214844 200.308594 190.8125 C 200.125 192.273438 198.878906 193.371094 197.402344 193.371094 C 192.394531 193.371094 182.929688 193.371094 177.921875 193.371094 C 176.445312 193.371094 175.199219 192.273438 175.011719 190.8125 C 175.011719 190.8125 171.1875 160.34375 171.1875 160.34375 C 171.1875 160.34375 198.535156 160.34375 198.535156 160.34375 C 198.980469 160.34375 199.339844 159.984375 199.339844 159.542969 C 199.339844 159.101562 198.980469 158.742188 198.535156 158.742188 L 170.277344 158.742188 C 170.046875 158.742188 169.828125 158.839844 169.675781 159.015625 C 169.523438 159.183594 169.453125 159.414062 169.480469 159.640625 C 169.480469 159.640625 172.335938 182.390625 173.417969 191.011719 C 173.699219 193.273438 175.632812 194.972656 177.921875 194.972656 C 182.929688 194.972656 192.394531 194.972656 197.402344 194.972656 C 199.691406 194.972656 201.621094 193.273438 201.90625 191.011719 C 202.988281 182.390625 205.84375 159.640625 205.84375 159.640625 C 205.871094 159.414062 205.800781 159.183594 205.648438 159.015625 C 205.496094 158.839844 205.273438 158.742188 205.042969 158.742188 L 202.371094 158.742188 C 201.929688 158.742188 201.570312 159.101562 201.570312 159.542969 C 201.570312 159.984375 201.929688 160.34375 202.371094 160.34375 Z M 186.855469 168.199219 L 186.855469 185.515625 C 186.855469 185.957031 187.21875 186.316406 187.660156 186.316406 C 188.105469 186.316406 188.464844 185.957031 188.464844 185.515625 L 188.464844 168.199219 C 188.464844 167.757812 188.105469 167.398438 187.660156 167.398438 C 187.21875 167.398438 186.855469 167.757812 186.855469 168.199219 Z M 177.574219 168.296875 L 179.003906 185.550781 C 179.039062 185.992188 179.429688 186.320312 179.871094 186.28125 C 180.3125 186.246094 180.640625 185.859375 180.605469 185.417969 L 179.179688 168.164062 C 179.140625 167.722656 178.753906 167.394531 178.308594 167.429688 C 177.867188 167.46875 177.539062 167.855469 177.574219 168.296875 Z M 195.90625 168.164062 L 194.480469 185.417969 C 194.445312 185.859375 194.773438 186.246094 195.214844 186.28125 C 195.65625 186.320312 196.046875 185.992188 196.082031 185.550781 L 197.511719 168.296875 C 197.546875 167.855469 197.21875 167.46875 196.777344 167.429688 C 196.332031 167.394531 195.945312 167.722656 195.90625 168.164062 Z M 181.609375 153.277344 L 169.792969 156.433594 C 169.363281 156.546875 169.109375 156.984375 169.226562 157.414062 C 169.339844 157.839844 169.78125 158.09375 170.210938 157.980469 L 203.792969 149.019531 C 204.21875 148.902344 204.476562 148.464844 204.359375 148.035156 C 204.246094 147.609375 203.804688 147.355469 203.375 147.46875 L 191.558594 150.625 L 190.640625 147.214844 C 190.527344 146.789062 190.085938 146.535156 189.65625 146.648438 L 181.261719 148.890625 C 180.832031 149.003906 180.578125 149.445312 180.691406 149.871094 Z M 190.003906 151.039062 L 189.296875 148.40625 C 189.296875 148.40625 182.453125 150.230469 182.453125 150.230469 L 183.164062 152.863281 Z M 190.003906 151.039062 " fill-opacity="1" fill-rule="evenodd"/></g><g fill="#187b1b" fill-opacity="1"><g transform="translate(105.190646, 258.185534)"><g><path d="M 1.625 0 L 1.625 -16.671875 L 8.3125 -16.671875 C 10.039062 -16.671875 11.359375 -16.269531 12.265625 -15.46875 C 13.179688 -14.664062 13.640625 -13.632812 13.640625 -12.375 C 13.640625 -11.332031 13.359375 -10.5 12.796875 -9.875 C 12.234375 -9.25 11.546875 -8.820312 10.734375 -8.59375 C 11.691406 -8.40625 12.476562 -7.929688 13.09375 -7.171875 C 13.71875 -6.421875 14.03125 -5.546875 14.03125 -4.546875 C 14.03125 -3.234375 13.550781 -2.144531 12.59375 -1.28125 C 11.644531 -0.425781 10.296875 0 8.546875 0 Z M 4.671875 -9.671875 L 7.859375 -9.671875 C 8.710938 -9.671875 9.367188 -9.867188 9.828125 -10.265625 C 10.296875 -10.660156 10.53125 -11.222656 10.53125 -11.953125 C 10.53125 -12.648438 10.300781 -13.203125 9.84375 -13.609375 C 9.394531 -14.015625 8.71875 -14.21875 7.8125 -14.21875 L 4.671875 -14.21875 Z M 4.671875 -2.46875 L 8.078125 -2.46875 C 8.984375 -2.46875 9.6875 -2.675781 10.1875 -3.09375 C 10.6875 -3.519531 10.9375 -4.113281 10.9375 -4.875 C 10.9375 -5.65625 10.671875 -6.265625 10.140625 -6.703125 C 9.617188 -7.148438 8.914062 -7.375 8.03125 -7.375 L 4.671875 -7.375 Z M 4.671875 -2.46875 "/></g></g></g><g fill="#187b1b" fill-opacity="1"><g transform="translate(119.709026, 258.185534)"><g><path d="M 0.546875 0 L 6.640625 -16.671875 L 10.078125 -16.671875 L 16.171875 0 L 12.9375 0 L 11.59375 -3.859375 L 5.09375 -3.859375 L 3.734375 0 Z M 5.921875 -6.234375 L 10.765625 -6.234375 L 8.328125 -13.171875 Z M 5.921875 -6.234375 "/></g></g></g><g fill="#187b1b" fill-opacity="1"><g transform="translate(135.893472, 258.185534)"><g><path d="M 1.625 0 L 1.625 -16.671875 L 4.671875 -16.671875 L 12.5 -4.921875 L 12.5 -16.671875 L 15.546875 -16.671875 L 15.546875 0 L 12.5 0 L 4.671875 -11.71875 L 4.671875 0 Z M 1.625 0 "/></g></g></g><g fill="#187b1b" fill-opacity="1"><g transform="translate(152.553934, 258.185534)"><g><path d="M 1.625 0 L 1.625 -16.671875 L 4.671875 -16.671875 L 4.671875 -9.9375 L 10.828125 -16.671875 L 14.59375 -16.671875 L 8.453125 -10.046875 L 14.765625 0 L 11.03125 0 L 6.265625 -7.71875 L 4.671875 -5.984375 L 4.671875 0 Z M 1.625 0 "/></g></g></g><g fill="#187b1b" fill-opacity="1"><g transform="translate(167.286525, 258.185534)"><g/></g></g><g fill="#187b1b" fill-opacity="1"><g transform="translate(172.45118, 258.185534)"><g><path d="M 7.3125 0.28125 C 6.09375 0.28125 5.015625 0.0703125 4.078125 -0.34375 C 3.140625 -0.757812 2.398438 -1.359375 1.859375 -2.140625 C 1.316406 -2.929688 1.039062 -3.894531 1.03125 -5.03125 L 4.234375 -5.03125 C 4.265625 -4.25 4.546875 -3.59375 5.078125 -3.0625 C 5.609375 -2.53125 6.34375 -2.265625 7.28125 -2.265625 C 8.09375 -2.265625 8.738281 -2.457031 9.21875 -2.84375 C 9.695312 -3.226562 9.9375 -3.75 9.9375 -4.40625 C 9.9375 -5.082031 9.722656 -5.613281 9.296875 -6 C 8.878906 -6.382812 8.320312 -6.691406 7.625 -6.921875 C 6.925781 -7.160156 6.175781 -7.414062 5.375 -7.6875 C 4.09375 -8.132812 3.113281 -8.707031 2.4375 -9.40625 C 1.757812 -10.101562 1.421875 -11.03125 1.421875 -12.1875 C 1.410156 -13.175781 1.644531 -14.019531 2.125 -14.71875 C 2.613281 -15.425781 3.273438 -15.972656 4.109375 -16.359375 C 4.953125 -16.753906 5.925781 -16.953125 7.03125 -16.953125 C 8.132812 -16.953125 9.109375 -16.753906 9.953125 -16.359375 C 10.804688 -15.960938 11.472656 -15.40625 11.953125 -14.6875 C 12.441406 -13.976562 12.703125 -13.128906 12.734375 -12.140625 L 9.484375 -12.140625 C 9.460938 -12.734375 9.234375 -13.253906 8.796875 -13.703125 C 8.359375 -14.148438 7.753906 -14.375 6.984375 -14.375 C 6.316406 -14.394531 5.753906 -14.234375 5.296875 -13.890625 C 4.847656 -13.546875 4.625 -13.050781 4.625 -12.40625 C 4.625 -11.851562 4.796875 -11.410156 5.140625 -11.078125 C 5.492188 -10.753906 5.972656 -10.484375 6.578125 -10.265625 C 7.179688 -10.046875 7.867188 -9.804688 8.640625 -9.546875 C 9.460938 -9.265625 10.21875 -8.929688 10.90625 -8.546875 C 11.59375 -8.171875 12.140625 -7.664062 12.546875 -7.03125 C 12.960938 -6.40625 13.171875 -5.601562 13.171875 -4.625 C 13.171875 -3.75 12.945312 -2.9375 12.5 -2.1875 C 12.050781 -1.445312 11.390625 -0.847656 10.515625 -0.390625 C 9.648438 0.0546875 8.582031 0.28125 7.3125 0.28125 Z M 7.3125 0.28125 "/></g></g></g><g fill="#187b1b" fill-opacity="1"><g transform="translate(186.160337, 258.185534)"><g><path d="M 0.546875 0 L 6.640625 -16.671875 L 10.078125 -16.671875 L 16.171875 0 L 12.9375 0 L 11.59375 -3.859375 L 5.09375 -3.859375 L 3.734375 0 Z M 5.921875 -6.234375 L 10.765625 -6.234375 L 8.328125 -13.171875 Z M 5.921875 -6.234375 "/></g></g></g><g fill="#187b1b" fill-opacity="1"><g transform="translate(202.344776, 258.185534)"><g><path d="M 1.625 0 L 1.625 -16.671875 L 5.234375 -16.671875 L 10.546875 -6.09375 L 15.78125 -16.671875 L 19.40625 -16.671875 L 19.40625 0 L 16.359375 0 L 16.359375 -11.5 L 11.71875 -2.375 L 9.3125 -2.375 L 4.671875 -11.5 L 4.671875 0 Z M 1.625 0 "/></g></g></g><g fill="#187b1b" fill-opacity="1"><g transform="translate(222.860964, 258.185534)"><g><path d="M 1.625 0 L 1.625 -16.671875 L 7.78125 -16.671875 C 9.113281 -16.671875 10.21875 -16.445312 11.09375 -16 C 11.96875 -15.550781 12.617188 -14.9375 13.046875 -14.15625 C 13.472656 -13.382812 13.6875 -12.515625 13.6875 -11.546875 C 13.6875 -10.628906 13.476562 -9.785156 13.0625 -9.015625 C 12.65625 -8.242188 12.015625 -7.625 11.140625 -7.15625 C 10.265625 -6.6875 9.144531 -6.453125 7.78125 -6.453125 L 4.671875 -6.453125 L 4.671875 0 Z M 4.671875 -8.9375 L 7.59375 -8.9375 C 8.65625 -8.9375 9.421875 -9.164062 9.890625 -9.625 C 10.359375 -10.09375 10.59375 -10.734375 10.59375 -11.546875 C 10.59375 -12.367188 10.359375 -13.015625 9.890625 -13.484375 C 9.421875 -13.953125 8.65625 -14.1875 7.59375 -14.1875 L 4.671875 -14.1875 Z M 4.671875 -8.9375 "/></g></g></g><g fill="#187b1b" fill-opacity="1"><g transform="translate(236.80813, 258.185534)"><g><path d="M 0.546875 0 L 6.640625 -16.671875 L 10.078125 -16.671875 L 16.171875 0 L 12.9375 0 L 11.59375 -3.859375 L 5.09375 -3.859375 L 3.734375 0 Z M 5.921875 -6.234375 L 10.765625 -6.234375 L 8.328125 -13.171875 Z M 5.921875 -6.234375 "/></g></g></g><g fill="#187b1b" fill-opacity="1"><g transform="translate(252.992569, 258.185534)"><g><path d="M 1.625 0 L 1.625 -16.671875 L 4.671875 -16.671875 L 4.671875 -9.734375 L 12.140625 -9.734375 L 12.140625 -16.671875 L 15.1875 -16.671875 L 15.1875 0 L 12.140625 0 L 12.140625 -7.265625 L 4.671875 -7.265625 L 4.671875 0 Z M 1.625 0 "/></g></g></g><g fill="#187b1b" fill-opacity="1"><g transform="translate(102.324109, 277.569767)"><g><path d="M 5.5625 0.171875 C 4.59375 0.171875 3.742188 -0.0507812 3.015625 -0.5 C 2.285156 -0.945312 1.71875 -1.570312 1.3125 -2.375 C 0.90625 -3.1875 0.703125 -4.125 0.703125 -5.1875 C 0.703125 -6.238281 0.90625 -7.171875 1.3125 -7.984375 C 1.71875 -8.796875 2.300781 -9.425781 3.0625 -9.875 C 3.820312 -10.332031 4.71875 -10.5625 5.75 -10.5625 C 6.914062 -10.5625 7.882812 -10.28125 8.65625 -9.71875 C 9.4375 -9.15625 9.941406 -8.378906 10.171875 -7.390625 L 8.734375 -7.390625 C 8.585938 -8.015625 8.253906 -8.507812 7.734375 -8.875 C 7.222656 -9.238281 6.5625 -9.421875 5.75 -9.421875 C 4.976562 -9.421875 4.3125 -9.25 3.75 -8.90625 C 3.1875 -8.570312 2.75 -8.085938 2.4375 -7.453125 C 2.125 -6.816406 1.96875 -6.0625 1.96875 -5.1875 C 1.96875 -4.300781 2.117188 -3.539062 2.421875 -2.90625 C 2.734375 -2.269531 3.160156 -1.78125 3.703125 -1.4375 C 4.253906 -1.101562 4.890625 -0.9375 5.609375 -0.9375 C 6.710938 -0.9375 7.546875 -1.257812 8.109375 -1.90625 C 8.679688 -2.550781 9.003906 -3.441406 9.078125 -4.578125 L 6.078125 -4.578125 L 6.078125 -5.546875 L 10.359375 -5.546875 L 10.359375 0 L 9.21875 0 L 9.109375 -1.703125 C 8.734375 -1.097656 8.273438 -0.632812 7.734375 -0.3125 C 7.191406 0.0078125 6.46875 0.171875 5.5625 0.171875 Z M 5.5625 0.171875 "/></g></g></g><g fill="#187b1b" fill-opacity="1"><g transform="translate(115.152772, 277.569767)"><g><path d="M 5.8125 0.171875 C 4.800781 0.171875 3.910156 -0.0507812 3.140625 -0.5 C 2.367188 -0.945312 1.769531 -1.578125 1.34375 -2.390625 C 0.914062 -3.203125 0.703125 -4.132812 0.703125 -5.1875 C 0.703125 -6.25 0.914062 -7.179688 1.34375 -7.984375 C 1.769531 -8.796875 2.367188 -9.425781 3.140625 -9.875 C 3.910156 -10.332031 4.800781 -10.5625 5.8125 -10.5625 C 6.84375 -10.5625 7.738281 -10.332031 8.5 -9.875 C 9.269531 -9.425781 9.867188 -8.796875 10.296875 -7.984375 C 10.722656 -7.179688 10.9375 -6.25 10.9375 -5.1875 C 10.9375 -4.132812 10.722656 -3.203125 10.296875 -2.390625 C 9.867188 -1.578125 9.269531 -0.945312 8.5 -0.5 C 7.738281 -0.0507812 6.84375 0.171875 5.8125 0.171875 Z M 5.8125 -0.921875 C 6.582031 -0.921875 7.253906 -1.085938 7.828125 -1.421875 C 8.410156 -1.765625 8.859375 -2.253906 9.171875 -2.890625 C 9.492188 -3.535156 9.65625 -4.300781 9.65625 -5.1875 C 9.65625 -6.082031 9.492188 -6.847656 9.171875 -7.484375 C 8.859375 -8.117188 8.410156 -8.601562 7.828125 -8.9375 C 7.253906 -9.28125 6.582031 -9.453125 5.8125 -9.453125 C 5.050781 -9.453125 4.378906 -9.28125 3.796875 -8.9375 C 3.222656 -8.601562 2.773438 -8.117188 2.453125 -7.484375 C 2.128906 -6.847656 1.96875 -6.082031 1.96875 -5.1875 C 1.96875 -4.300781 2.128906 -3.535156 2.453125 -2.890625 C 2.773438 -2.253906 3.222656 -1.765625 3.796875 -1.421875 C 4.378906 -1.085938 5.050781 -0.921875 5.8125 -0.921875 Z M 5.8125 -0.921875 "/></g></g></g><g fill="#187b1b" fill-opacity="1"><g transform="translate(128.382321, 277.569767)"><g><path d="M 3.53125 0 L 3.53125 -9.359375 L 0.4375 -9.359375 L 0.4375 -10.390625 L 7.875 -10.390625 L 7.875 -9.359375 L 4.78125 -9.359375 L 4.78125 0 Z M 3.53125 0 "/></g></g></g><g fill="#187b1b" fill-opacity="1"><g transform="translate(138.286, 277.569767)"><g/></g></g><g fill="#187b1b" fill-opacity="1"><g transform="translate(143.809625, 277.569767)"><g><path d="M 5.65625 0.171875 C 4.632812 0.171875 3.753906 -0.0507812 3.015625 -0.5 C 2.285156 -0.945312 1.71875 -1.570312 1.3125 -2.375 C 0.90625 -3.1875 0.703125 -4.125 0.703125 -5.1875 C 0.703125 -6.25 0.90625 -7.179688 1.3125 -7.984375 C 1.71875 -8.796875 2.285156 -9.425781 3.015625 -9.875 C 3.753906 -10.332031 4.632812 -10.5625 5.65625 -10.5625 C 6.84375 -10.5625 7.804688 -10.273438 8.546875 -9.703125 C 9.296875 -9.140625 9.773438 -8.347656 9.984375 -7.328125 L 8.609375 -7.328125 C 8.453125 -7.972656 8.128906 -8.488281 7.640625 -8.875 C 7.148438 -9.269531 6.488281 -9.46875 5.65625 -9.46875 C 4.914062 -9.46875 4.265625 -9.296875 3.703125 -8.953125 C 3.148438 -8.617188 2.722656 -8.128906 2.421875 -7.484375 C 2.117188 -6.847656 1.96875 -6.082031 1.96875 -5.1875 C 1.96875 -4.300781 2.117188 -3.535156 2.421875 -2.890625 C 2.722656 -2.253906 3.148438 -1.765625 3.703125 -1.421875 C 4.265625 -1.085938 4.914062 -0.921875 5.65625 -0.921875 C 6.488281 -0.921875 7.148438 -1.109375 7.640625 -1.484375 C 8.128906 -1.867188 8.453125 -2.378906 8.609375 -3.015625 L 9.984375 -3.015625 C 9.773438 -2.015625 9.296875 -1.234375 8.546875 -0.671875 C 7.804688 -0.109375 6.84375 0.171875 5.65625 0.171875 Z M 5.65625 0.171875 "/></g></g></g><g fill="#187b1b" fill-opacity="1"><g transform="translate(156.088929, 277.569767)"><g><path d="M 1.09375 0 L 1.09375 -10.390625 L 2.34375 -10.390625 L 2.34375 -1 L 7.1875 -1 L 7.1875 0 Z M 1.09375 0 "/></g></g></g><g fill="#187b1b" fill-opacity="1"><g transform="translate(165.472935, 277.569767)"><g><path d="M 1.09375 0 L 1.09375 -10.390625 L 7.53125 -10.390625 L 7.53125 -9.359375 L 2.34375 -9.359375 L 2.34375 -5.75 L 7.078125 -5.75 L 7.078125 -4.734375 L 2.34375 -4.734375 L 2.34375 -1.03125 L 7.53125 -1.03125 L 7.53125 0 Z M 1.09375 0 "/></g></g></g><g fill="#187b1b" fill-opacity="1"><g transform="translate(175.436001, 277.569767)"><g><path d="M 0.4375 0 L 4.28125 -10.390625 L 5.59375 -10.390625 L 9.40625 0 L 8.09375 0 L 7.140625 -2.671875 L 2.71875 -2.671875 L 1.75 0 Z M 3.09375 -3.6875 L 6.765625 -3.6875 L 4.921875 -8.8125 Z M 3.09375 -3.6875 "/></g></g></g><g fill="#187b1b" fill-opacity="1"><g transform="translate(186.883834, 277.569767)"><g><path d="M 1.09375 0 L 1.09375 -10.390625 L 2.34375 -10.390625 L 7.875 -2.0625 L 7.875 -10.390625 L 9.125 -10.390625 L 9.125 0 L 7.875 0 L 2.34375 -8.328125 L 2.34375 0 Z M 1.09375 0 "/></g></g></g><g fill="#187b1b" fill-opacity="1"><g transform="translate(198.702856, 277.569767)"><g/></g></g><g fill="#187b1b" fill-opacity="1"><g transform="translate(204.226484, 277.569767)"><g><path d="M 5.5625 0.171875 C 4.59375 0.171875 3.742188 -0.0507812 3.015625 -0.5 C 2.285156 -0.945312 1.71875 -1.570312 1.3125 -2.375 C 0.90625 -3.1875 0.703125 -4.125 0.703125 -5.1875 C 0.703125 -6.238281 0.90625 -7.171875 1.3125 -7.984375 C 1.71875 -8.796875 2.300781 -9.425781 3.0625 -9.875 C 3.820312 -10.332031 4.71875 -10.5625 5.75 -10.5625 C 6.914062 -10.5625 7.882812 -10.28125 8.65625 -9.71875 C 9.4375 -9.15625 9.941406 -8.378906 10.171875 -7.390625 L 8.734375 -7.390625 C 8.585938 -8.015625 8.253906 -8.507812 7.734375 -8.875 C 7.222656 -9.238281 6.5625 -9.421875 5.75 -9.421875 C 4.976562 -9.421875 4.3125 -9.25 3.75 -8.90625 C 3.1875 -8.570312 2.75 -8.085938 2.4375 -7.453125 C 2.125 -6.816406 1.96875 -6.0625 1.96875 -5.1875 C 1.96875 -4.300781 2.117188 -3.539062 2.421875 -2.90625 C 2.734375 -2.269531 3.160156 -1.78125 3.703125 -1.4375 C 4.253906 -1.101562 4.890625 -0.9375 5.609375 -0.9375 C 6.710938 -0.9375 7.546875 -1.257812 8.109375 -1.90625 C 8.679688 -2.550781 9.003906 -3.441406 9.078125 -4.578125 L 6.078125 -4.578125 L 6.078125 -5.546875 L 10.359375 -5.546875 L 10.359375 0 L 9.21875 0 L 9.109375 -1.703125 C 8.734375 -1.097656 8.273438 -0.632812 7.734375 -0.3125 C 7.191406 0.0078125 6.46875 0.171875 5.5625 0.171875 Z M 5.5625 0.171875 "/></g></g></g><g fill="#187b1b" fill-opacity="1"><g transform="translate(217.05515, 277.569767)"><g><path d="M 5.8125 0.171875 C 4.800781 0.171875 3.910156 -0.0507812 3.140625 -0.5 C 2.367188 -0.945312 1.769531 -1.578125 1.34375 -2.390625 C 0.914062 -3.203125 0.703125 -4.132812 0.703125 -5.1875 C 0.703125 -6.25 0.914062 -7.179688 1.34375 -7.984375 C 1.769531 -8.796875 2.367188 -9.425781 3.140625 -9.875 C 3.910156 -10.332031 4.800781 -10.5625 5.8125 -10.5625 C 6.84375 -10.5625 7.738281 -10.332031 8.5 -9.875 C 9.269531 -9.425781 9.867188 -8.796875 10.296875 -7.984375 C 10.722656 -7.179688 10.9375 -6.25 10.9375 -5.1875 C 10.9375 -4.132812 10.722656 -3.203125 10.296875 -2.390625 C 9.867188 -1.578125 9.269531 -0.945312 8.5 -0.5 C 7.738281 -0.0507812 6.84375 0.171875 5.8125 0.171875 Z M 5.8125 -0.921875 C 6.582031 -0.921875 7.253906 -1.085938 7.828125 -1.421875 C 8.410156 -1.765625 8.859375 -2.253906 9.171875 -2.890625 C 9.492188 -3.535156 9.65625 -4.300781 9.65625 -5.1875 C 9.65625 -6.082031 9.492188 -6.847656 9.171875 -7.484375 C 8.859375 -8.117188 8.410156 -8.601562 7.828125 -8.9375 C 7.253906 -9.28125 6.582031 -9.453125 5.8125 -9.453125 C 5.050781 -9.453125 4.378906 -9.28125 3.796875 -8.9375 C 3.222656 -8.601562 2.773438 -8.117188 2.453125 -7.484375 C 2.128906 -6.847656 1.96875 -6.082031 1.96875 -5.1875 C 1.96875 -4.300781 2.128906 -3.535156 2.453125 -2.890625 C 2.773438 -2.253906 3.222656 -1.765625 3.796875 -1.421875 C 4.378906 -1.085938 5.050781 -0.921875 5.8125 -0.921875 Z M 5.8125 -0.921875 "/></g></g></g><g fill="#187b1b" fill-opacity="1"><g transform="translate(230.284702, 277.569767)"><g><path d="M 3.53125 0 L 3.53125 -9.359375 L 0.4375 -9.359375 L 0.4375 -10.390625 L 7.875 -10.390625 L 7.875 -9.359375 L 4.78125 -9.359375 L 4.78125 0 Z M 3.53125 0 "/></g></g></g><g fill="#187b1b" fill-opacity="1"><g transform="translate(240.188384, 277.569767)"><g/></g></g><g fill="#187b1b" fill-opacity="1"><g transform="translate(245.712012, 277.569767)"><g><path d="M 1.09375 0 L 1.09375 -10.390625 L 4.453125 -10.390625 C 5.265625 -10.390625 5.925781 -10.253906 6.4375 -9.984375 C 6.957031 -9.722656 7.335938 -9.359375 7.578125 -8.890625 C 7.828125 -8.421875 7.953125 -7.90625 7.953125 -7.34375 C 7.953125 -6.695312 7.773438 -6.109375 7.421875 -5.578125 C 7.078125 -5.054688 6.53125 -4.6875 5.78125 -4.46875 L 8.0625 0 L 6.59375 0 L 4.484375 -4.296875 L 2.34375 -4.296875 L 2.34375 0 Z M 2.34375 -5.265625 L 4.359375 -5.265625 C 5.160156 -5.265625 5.742188 -5.457031 6.109375 -5.84375 C 6.484375 -6.226562 6.671875 -6.722656 6.671875 -7.328125 C 6.671875 -7.941406 6.488281 -8.429688 6.125 -8.796875 C 5.757812 -9.160156 5.164062 -9.34375 4.34375 -9.34375 L 2.34375 -9.34375 Z M 2.34375 -5.265625 "/></g></g></g><g fill="#187b1b" fill-opacity="1"><g transform="translate(256.105661, 277.569767)"><g><path d="M 1.09375 0 L 1.09375 -10.390625 L 2.34375 -10.390625 L 2.34375 0 Z M 1.09375 0 "/></g></g></g><g fill="#187b1b" fill-opacity="1"><g transform="translate(261.13931, 277.569767)"><g><path d="M 5.65625 0.171875 C 4.632812 0.171875 3.753906 -0.0507812 3.015625 -0.5 C 2.285156 -0.945312 1.71875 -1.570312 1.3125 -2.375 C 0.90625 -3.1875 0.703125 -4.125 0.703125 -5.1875 C 0.703125 -6.25 0.90625 -7.179688 1.3125 -7.984375 C 1.71875 -8.796875 2.285156 -9.425781 3.015625 -9.875 C 3.753906 -10.332031 4.632812 -10.5625 5.65625 -10.5625 C 6.84375 -10.5625 7.804688 -10.273438 8.546875 -9.703125 C 9.296875 -9.140625 9.773438 -8.347656 9.984375 -7.328125 L 8.609375 -7.328125 C 8.453125 -7.972656 8.128906 -8.488281 7.640625 -8.875 C 7.148438 -9.269531 6.488281 -9.46875 5.65625 -9.46875 C 4.914062 -9.46875 4.265625 -9.296875 3.703125 -8.953125 C 3.148438 -8.617188 2.722656 -8.128906 2.421875 -7.484375 C 2.117188 -6.847656 1.96875 -6.082031 1.96875 -5.1875 C 1.96875 -4.300781 2.117188 -3.535156 2.421875 -2.890625 C 2.722656 -2.253906 3.148438 -1.765625 3.703125 -1.421875 C 4.265625 -1.085938 4.914062 -0.921875 5.65625 -0.921875 C 6.488281 -0.921875 7.148438 -1.109375 7.640625 -1.484375 C 8.128906 -1.867188 8.453125 -2.378906 8.609375 -3.015625 L 9.984375 -3.015625 C 9.773438 -2.015625 9.296875 -1.234375 8.546875 -0.671875 C 7.804688 -0.109375 6.84375 0.171875 5.65625 0.171875 Z M 5.65625 0.171875 "/></g></g></g><g fill="#187b1b" fill-opacity="1"><g transform="translate(273.418614, 277.569767)"><g><path d="M 1.09375 0 L 1.09375 -10.390625 L 2.34375 -10.390625 L 2.34375 -5.796875 L 7.734375 -5.796875 L 7.734375 -10.390625 L 8.984375 -10.390625 L 8.984375 0 L 7.734375 0 L 7.734375 -4.78125 L 2.34375 -4.78125 L 2.34375 0 Z M 1.09375 0 "/></g></g></g></svg>